<mxfile host="app.diagrams.net" modified="2020-09-20T10:51:56.798Z" agent="5.0 (X11; Linux x86_64) AppleWebKit/537.36 (KHTML, like Gecko) Chrome/85.0.4183.83 Safari/537.36" etag="FW_QMLu-Eh1xmfXDzIhJ" version="13.7.3" type="github">
  <diagram id="4NmLZIBllRo9rkTQsevi" name="Roadmap">
    <mxGraphModel dx="2067" dy="1875" grid="1" gridSize="10" guides="1" tooltips="1" connect="1" arrows="1" fold="1" page="1" pageScale="1" pageWidth="827" pageHeight="1169" math="0" shadow="0">
      <root>
        <mxCell id="0" />
        <mxCell id="1" parent="0" />
        <mxCell id="DoB-NNo9R8UuOntgGLnS-146" style="edgeStyle=orthogonalEdgeStyle;curved=1;orthogonalLoop=1;jettySize=auto;html=1;entryX=1;entryY=0.75;entryDx=0;entryDy=0;strokeColor=#000000;fontSize=12;" edge="1" parent="1" source="DoB-NNo9R8UuOntgGLnS-1" target="DoB-NNo9R8UuOntgGLnS-142">
          <mxGeometry relative="1" as="geometry" />
        </mxCell>
        <mxCell id="DoB-NNo9R8UuOntgGLnS-147" style="edgeStyle=orthogonalEdgeStyle;curved=1;orthogonalLoop=1;jettySize=auto;html=1;entryX=1;entryY=0.5;entryDx=0;entryDy=0;strokeColor=#000000;fontSize=12;" edge="1" parent="1" source="DoB-NNo9R8UuOntgGLnS-1" target="DoB-NNo9R8UuOntgGLnS-144">
          <mxGeometry relative="1" as="geometry" />
        </mxCell>
        <mxCell id="DoB-NNo9R8UuOntgGLnS-148" style="edgeStyle=orthogonalEdgeStyle;curved=1;orthogonalLoop=1;jettySize=auto;html=1;entryX=1;entryY=0.5;entryDx=0;entryDy=0;strokeColor=#000000;fontSize=12;" edge="1" parent="1" source="DoB-NNo9R8UuOntgGLnS-1" target="DoB-NNo9R8UuOntgGLnS-143">
          <mxGeometry relative="1" as="geometry" />
        </mxCell>
        <mxCell id="DoB-NNo9R8UuOntgGLnS-149" style="edgeStyle=orthogonalEdgeStyle;curved=1;orthogonalLoop=1;jettySize=auto;html=1;entryX=1;entryY=0.5;entryDx=0;entryDy=0;strokeColor=#000000;fontSize=12;" edge="1" parent="1" source="DoB-NNo9R8UuOntgGLnS-1" target="DoB-NNo9R8UuOntgGLnS-145">
          <mxGeometry relative="1" as="geometry" />
        </mxCell>
        <mxCell id="DoB-NNo9R8UuOntgGLnS-186" style="edgeStyle=orthogonalEdgeStyle;curved=1;orthogonalLoop=1;jettySize=auto;html=1;entryX=1;entryY=0.5;entryDx=0;entryDy=0;strokeColor=#000000;fontSize=12;" edge="1" parent="1" source="DoB-NNo9R8UuOntgGLnS-1" target="DoB-NNo9R8UuOntgGLnS-176">
          <mxGeometry relative="1" as="geometry" />
        </mxCell>
        <mxCell id="DoB-NNo9R8UuOntgGLnS-188" style="edgeStyle=orthogonalEdgeStyle;curved=1;orthogonalLoop=1;jettySize=auto;html=1;entryX=1;entryY=0.5;entryDx=0;entryDy=0;strokeColor=#000000;fontSize=12;" edge="1" parent="1" source="DoB-NNo9R8UuOntgGLnS-1" target="DoB-NNo9R8UuOntgGLnS-175">
          <mxGeometry relative="1" as="geometry" />
        </mxCell>
        <mxCell id="DoB-NNo9R8UuOntgGLnS-189" style="edgeStyle=orthogonalEdgeStyle;curved=1;orthogonalLoop=1;jettySize=auto;html=1;entryX=1;entryY=0.75;entryDx=0;entryDy=0;strokeColor=#000000;fontSize=12;" edge="1" parent="1" source="DoB-NNo9R8UuOntgGLnS-1" target="DoB-NNo9R8UuOntgGLnS-177">
          <mxGeometry relative="1" as="geometry" />
        </mxCell>
        <mxCell id="DoB-NNo9R8UuOntgGLnS-190" style="edgeStyle=orthogonalEdgeStyle;curved=1;orthogonalLoop=1;jettySize=auto;html=1;entryX=1;entryY=0.5;entryDx=0;entryDy=0;strokeColor=#000000;fontSize=12;" edge="1" parent="1" source="DoB-NNo9R8UuOntgGLnS-1" target="DoB-NNo9R8UuOntgGLnS-178">
          <mxGeometry relative="1" as="geometry" />
        </mxCell>
        <mxCell id="DoB-NNo9R8UuOntgGLnS-191" style="edgeStyle=orthogonalEdgeStyle;curved=1;orthogonalLoop=1;jettySize=auto;html=1;exitX=0;exitY=0.5;exitDx=0;exitDy=0;entryX=1;entryY=0.75;entryDx=0;entryDy=0;strokeColor=#000000;fontSize=12;" edge="1" parent="1" source="DoB-NNo9R8UuOntgGLnS-1" target="DoB-NNo9R8UuOntgGLnS-180">
          <mxGeometry relative="1" as="geometry" />
        </mxCell>
        <mxCell id="DoB-NNo9R8UuOntgGLnS-193" style="edgeStyle=orthogonalEdgeStyle;curved=1;orthogonalLoop=1;jettySize=auto;html=1;entryX=1;entryY=0.5;entryDx=0;entryDy=0;strokeColor=#000000;fontSize=12;" edge="1" parent="1" source="DoB-NNo9R8UuOntgGLnS-1" target="DoB-NNo9R8UuOntgGLnS-181">
          <mxGeometry relative="1" as="geometry" />
        </mxCell>
        <mxCell id="DoB-NNo9R8UuOntgGLnS-194" style="edgeStyle=orthogonalEdgeStyle;curved=1;orthogonalLoop=1;jettySize=auto;html=1;entryX=1;entryY=0.5;entryDx=0;entryDy=0;strokeColor=#000000;fontSize=12;" edge="1" parent="1" source="DoB-NNo9R8UuOntgGLnS-1" target="DoB-NNo9R8UuOntgGLnS-182">
          <mxGeometry relative="1" as="geometry" />
        </mxCell>
        <mxCell id="DoB-NNo9R8UuOntgGLnS-195" style="edgeStyle=orthogonalEdgeStyle;curved=1;orthogonalLoop=1;jettySize=auto;html=1;entryX=1;entryY=0.5;entryDx=0;entryDy=0;strokeColor=#000000;fontSize=12;" edge="1" parent="1" source="DoB-NNo9R8UuOntgGLnS-1" target="DoB-NNo9R8UuOntgGLnS-185">
          <mxGeometry relative="1" as="geometry" />
        </mxCell>
        <mxCell id="DoB-NNo9R8UuOntgGLnS-197" style="edgeStyle=orthogonalEdgeStyle;curved=1;orthogonalLoop=1;jettySize=auto;html=1;entryX=1;entryY=0.25;entryDx=0;entryDy=0;strokeColor=#000000;fontSize=12;" edge="1" parent="1" source="DoB-NNo9R8UuOntgGLnS-1" target="DoB-NNo9R8UuOntgGLnS-196">
          <mxGeometry relative="1" as="geometry" />
        </mxCell>
        <mxCell id="DoB-NNo9R8UuOntgGLnS-1" value="&lt;font style=&quot;font-size: 16px ; font-weight: normal&quot;&gt;Basic&lt;/font&gt;" style="rounded=0;whiteSpace=wrap;html=1;fillColor=#fff2cc;strokeColor=#d6b656;fontStyle=1;fontSize=20;gradientColor=#ffd966;" vertex="1" parent="1">
          <mxGeometry x="270" y="-320" width="180" height="50" as="geometry" />
        </mxCell>
        <mxCell id="DoB-NNo9R8UuOntgGLnS-138" style="edgeStyle=orthogonalEdgeStyle;curved=1;orthogonalLoop=1;jettySize=auto;html=1;entryX=1;entryY=0.5;entryDx=0;entryDy=0;strokeColor=#000000;fontSize=12;" edge="1" parent="1" source="DoB-NNo9R8UuOntgGLnS-2" target="DoB-NNo9R8UuOntgGLnS-134">
          <mxGeometry relative="1" as="geometry" />
        </mxCell>
        <mxCell id="DoB-NNo9R8UuOntgGLnS-139" style="edgeStyle=orthogonalEdgeStyle;curved=1;orthogonalLoop=1;jettySize=auto;html=1;entryX=1;entryY=0.75;entryDx=0;entryDy=0;strokeColor=#000000;fontSize=12;" edge="1" parent="1" source="DoB-NNo9R8UuOntgGLnS-2" target="DoB-NNo9R8UuOntgGLnS-136">
          <mxGeometry relative="1" as="geometry" />
        </mxCell>
        <mxCell id="DoB-NNo9R8UuOntgGLnS-140" style="edgeStyle=orthogonalEdgeStyle;curved=1;orthogonalLoop=1;jettySize=auto;html=1;strokeColor=#000000;fontSize=12;" edge="1" parent="1" source="DoB-NNo9R8UuOntgGLnS-2" target="DoB-NNo9R8UuOntgGLnS-135">
          <mxGeometry relative="1" as="geometry" />
        </mxCell>
        <mxCell id="DoB-NNo9R8UuOntgGLnS-141" style="edgeStyle=orthogonalEdgeStyle;curved=1;orthogonalLoop=1;jettySize=auto;html=1;entryX=1;entryY=0.5;entryDx=0;entryDy=0;strokeColor=#000000;fontSize=12;" edge="1" parent="1" source="DoB-NNo9R8UuOntgGLnS-2" target="DoB-NNo9R8UuOntgGLnS-137">
          <mxGeometry relative="1" as="geometry" />
        </mxCell>
        <mxCell id="DoB-NNo9R8UuOntgGLnS-2" value="NPM&lt;br style=&quot;font-size: 20px;&quot;&gt;" style="rounded=0;whiteSpace=wrap;html=1;fillColor=#fff2cc;strokeColor=#d6b656;fontSize=20;fontStyle=1" vertex="1" parent="1">
          <mxGeometry x="320" y="40" width="200" height="80" as="geometry" />
        </mxCell>
        <mxCell id="DoB-NNo9R8UuOntgGLnS-54" style="edgeStyle=orthogonalEdgeStyle;curved=1;orthogonalLoop=1;jettySize=auto;html=1;entryX=0.408;entryY=0.017;entryDx=0;entryDy=0;entryPerimeter=0;strokeColor=#000000;" edge="1" parent="1" source="DoB-NNo9R8UuOntgGLnS-3" target="DoB-NNo9R8UuOntgGLnS-33">
          <mxGeometry relative="1" as="geometry" />
        </mxCell>
        <mxCell id="DoB-NNo9R8UuOntgGLnS-166" style="edgeStyle=orthogonalEdgeStyle;curved=1;orthogonalLoop=1;jettySize=auto;html=1;strokeColor=#000000;fontSize=12;" edge="1" parent="1" source="DoB-NNo9R8UuOntgGLnS-3" target="DoB-NNo9R8UuOntgGLnS-9">
          <mxGeometry relative="1" as="geometry" />
        </mxCell>
        <mxCell id="DoB-NNo9R8UuOntgGLnS-3" value="Node JS&lt;br style=&quot;font-size: 20px;&quot;&gt;" style="rounded=0;whiteSpace=wrap;html=1;fillColor=#fff2cc;strokeColor=#d6b656;fontSize=20;fontStyle=1" vertex="1" parent="1">
          <mxGeometry x="320" y="160" width="200" height="80" as="geometry" />
        </mxCell>
        <mxCell id="DoB-NNo9R8UuOntgGLnS-236" style="edgeStyle=orthogonalEdgeStyle;curved=1;orthogonalLoop=1;jettySize=auto;html=1;strokeColor=#000000;fontSize=12;" edge="1" parent="1" source="DoB-NNo9R8UuOntgGLnS-9" target="DoB-NNo9R8UuOntgGLnS-235">
          <mxGeometry relative="1" as="geometry" />
        </mxCell>
        <mxCell id="DoB-NNo9R8UuOntgGLnS-238" style="edgeStyle=orthogonalEdgeStyle;curved=1;orthogonalLoop=1;jettySize=auto;html=1;strokeColor=#000000;fontSize=12;" edge="1" parent="1" source="DoB-NNo9R8UuOntgGLnS-9" target="DoB-NNo9R8UuOntgGLnS-237">
          <mxGeometry relative="1" as="geometry" />
        </mxCell>
        <mxCell id="DoB-NNo9R8UuOntgGLnS-290" style="edgeStyle=orthogonalEdgeStyle;curved=1;orthogonalLoop=1;jettySize=auto;html=1;entryX=0;entryY=0.5;entryDx=0;entryDy=0;strokeColor=#000000;fontSize=12;" edge="1" parent="1" source="DoB-NNo9R8UuOntgGLnS-9" target="DoB-NNo9R8UuOntgGLnS-257">
          <mxGeometry relative="1" as="geometry" />
        </mxCell>
        <mxCell id="DoB-NNo9R8UuOntgGLnS-292" style="edgeStyle=orthogonalEdgeStyle;curved=1;orthogonalLoop=1;jettySize=auto;html=1;entryX=0;entryY=0.5;entryDx=0;entryDy=0;strokeColor=#000000;fontSize=12;" edge="1" parent="1" source="DoB-NNo9R8UuOntgGLnS-9" target="DoB-NNo9R8UuOntgGLnS-259">
          <mxGeometry relative="1" as="geometry" />
        </mxCell>
        <mxCell id="DoB-NNo9R8UuOntgGLnS-9" value="Express.js&lt;br style=&quot;font-size: 16px;&quot;&gt;" style="rounded=0;whiteSpace=wrap;html=1;fillColor=#fff2cc;strokeColor=#d6b656;fontSize=16;gradientColor=#ffd966;" vertex="1" parent="1">
          <mxGeometry x="707" y="-30" width="120" height="40" as="geometry" />
        </mxCell>
        <mxCell id="DoB-NNo9R8UuOntgGLnS-61" style="edgeStyle=orthogonalEdgeStyle;curved=1;orthogonalLoop=1;jettySize=auto;html=1;strokeColor=#000000;" edge="1" parent="1" source="DoB-NNo9R8UuOntgGLnS-10" target="DoB-NNo9R8UuOntgGLnS-13">
          <mxGeometry relative="1" as="geometry" />
        </mxCell>
        <mxCell id="DoB-NNo9R8UuOntgGLnS-10" value="Database&lt;br style=&quot;font-size: 20px;&quot;&gt;" style="rounded=0;whiteSpace=wrap;html=1;fillColor=#fff2cc;strokeColor=#d6b656;fontStyle=1;fontSize=20;" vertex="1" parent="1">
          <mxGeometry x="314" y="280" width="200" height="80" as="geometry" />
        </mxCell>
        <mxCell id="DoB-NNo9R8UuOntgGLnS-122" style="edgeStyle=orthogonalEdgeStyle;curved=1;orthogonalLoop=1;jettySize=auto;html=1;entryX=1;entryY=0.75;entryDx=0;entryDy=0;strokeColor=#000000;fontSize=12;" edge="1" parent="1" source="DoB-NNo9R8UuOntgGLnS-11" target="DoB-NNo9R8UuOntgGLnS-116">
          <mxGeometry relative="1" as="geometry" />
        </mxCell>
        <mxCell id="DoB-NNo9R8UuOntgGLnS-123" style="edgeStyle=orthogonalEdgeStyle;curved=1;orthogonalLoop=1;jettySize=auto;html=1;entryX=1;entryY=0.5;entryDx=0;entryDy=0;strokeColor=#000000;fontSize=12;" edge="1" parent="1" source="DoB-NNo9R8UuOntgGLnS-11" target="DoB-NNo9R8UuOntgGLnS-118">
          <mxGeometry relative="1" as="geometry" />
        </mxCell>
        <mxCell id="DoB-NNo9R8UuOntgGLnS-124" style="edgeStyle=orthogonalEdgeStyle;curved=1;orthogonalLoop=1;jettySize=auto;html=1;strokeColor=#000000;fontSize=12;" edge="1" parent="1" source="DoB-NNo9R8UuOntgGLnS-11" target="DoB-NNo9R8UuOntgGLnS-117">
          <mxGeometry relative="1" as="geometry" />
        </mxCell>
        <mxCell id="DoB-NNo9R8UuOntgGLnS-125" style="edgeStyle=orthogonalEdgeStyle;curved=1;orthogonalLoop=1;jettySize=auto;html=1;strokeColor=#000000;fontSize=12;" edge="1" parent="1" source="DoB-NNo9R8UuOntgGLnS-11" target="DoB-NNo9R8UuOntgGLnS-119">
          <mxGeometry relative="1" as="geometry" />
        </mxCell>
        <mxCell id="DoB-NNo9R8UuOntgGLnS-11" value="&lt;font style=&quot;font-size: 16px ; font-weight: normal&quot;&gt;ES6/ES5&lt;/font&gt;" style="rounded=0;whiteSpace=wrap;html=1;fillColor=#fff2cc;strokeColor=#d6b656;fontStyle=1;fontSize=20;gradientColor=#ffd966;" vertex="1" parent="1">
          <mxGeometry x="520" y="-250" width="150" height="50" as="geometry" />
        </mxCell>
        <mxCell id="DoB-NNo9R8UuOntgGLnS-212" value="" style="edgeStyle=orthogonalEdgeStyle;curved=1;orthogonalLoop=1;jettySize=auto;html=1;strokeColor=#000000;fontSize=12;" edge="1" parent="1" source="DoB-NNo9R8UuOntgGLnS-13" target="DoB-NNo9R8UuOntgGLnS-211">
          <mxGeometry relative="1" as="geometry" />
        </mxCell>
        <mxCell id="DoB-NNo9R8UuOntgGLnS-224" style="edgeStyle=orthogonalEdgeStyle;curved=1;orthogonalLoop=1;jettySize=auto;html=1;strokeColor=#000000;fontSize=12;" edge="1" parent="1" source="DoB-NNo9R8UuOntgGLnS-13" target="DoB-NNo9R8UuOntgGLnS-221">
          <mxGeometry relative="1" as="geometry" />
        </mxCell>
        <mxCell id="DoB-NNo9R8UuOntgGLnS-225" style="edgeStyle=orthogonalEdgeStyle;curved=1;orthogonalLoop=1;jettySize=auto;html=1;entryX=0.327;entryY=-0.04;entryDx=0;entryDy=0;entryPerimeter=0;strokeColor=#000000;fontSize=12;" edge="1" parent="1" source="DoB-NNo9R8UuOntgGLnS-13" target="DoB-NNo9R8UuOntgGLnS-222">
          <mxGeometry relative="1" as="geometry" />
        </mxCell>
        <mxCell id="DoB-NNo9R8UuOntgGLnS-226" style="edgeStyle=orthogonalEdgeStyle;curved=1;orthogonalLoop=1;jettySize=auto;html=1;strokeColor=#000000;fontSize=12;" edge="1" parent="1" source="DoB-NNo9R8UuOntgGLnS-13" target="DoB-NNo9R8UuOntgGLnS-223">
          <mxGeometry relative="1" as="geometry" />
        </mxCell>
        <mxCell id="DoB-NNo9R8UuOntgGLnS-13" value="&lt;font style=&quot;font-size: 16px&quot;&gt;MySQL&lt;/font&gt;" style="rounded=0;whiteSpace=wrap;html=1;fillColor=#fff2cc;strokeColor=#d6b656;gradientColor=#ffd966;" vertex="1" parent="1">
          <mxGeometry x="-90" y="420" width="130" height="40" as="geometry" />
        </mxCell>
        <mxCell id="DoB-NNo9R8UuOntgGLnS-110" style="edgeStyle=orthogonalEdgeStyle;curved=1;orthogonalLoop=1;jettySize=auto;html=1;entryX=0;entryY=0.5;entryDx=0;entryDy=0;strokeColor=#000000;fontSize=12;" edge="1" parent="1" source="DoB-NNo9R8UuOntgGLnS-33" target="DoB-NNo9R8UuOntgGLnS-103">
          <mxGeometry relative="1" as="geometry" />
        </mxCell>
        <mxCell id="DoB-NNo9R8UuOntgGLnS-111" style="edgeStyle=orthogonalEdgeStyle;curved=1;orthogonalLoop=1;jettySize=auto;html=1;entryX=0;entryY=0.5;entryDx=0;entryDy=0;strokeColor=#000000;fontSize=12;" edge="1" parent="1" source="DoB-NNo9R8UuOntgGLnS-33" target="DoB-NNo9R8UuOntgGLnS-105">
          <mxGeometry relative="1" as="geometry" />
        </mxCell>
        <mxCell id="DoB-NNo9R8UuOntgGLnS-112" style="edgeStyle=orthogonalEdgeStyle;curved=1;orthogonalLoop=1;jettySize=auto;html=1;entryX=0;entryY=0.25;entryDx=0;entryDy=0;strokeColor=#000000;fontSize=12;" edge="1" parent="1" source="DoB-NNo9R8UuOntgGLnS-33" target="DoB-NNo9R8UuOntgGLnS-104">
          <mxGeometry relative="1" as="geometry" />
        </mxCell>
        <mxCell id="DoB-NNo9R8UuOntgGLnS-113" style="edgeStyle=orthogonalEdgeStyle;curved=1;orthogonalLoop=1;jettySize=auto;html=1;entryX=0;entryY=0.5;entryDx=0;entryDy=0;strokeColor=#000000;fontSize=12;" edge="1" parent="1" source="DoB-NNo9R8UuOntgGLnS-33" target="DoB-NNo9R8UuOntgGLnS-106">
          <mxGeometry relative="1" as="geometry" />
        </mxCell>
        <mxCell id="DoB-NNo9R8UuOntgGLnS-114" style="edgeStyle=orthogonalEdgeStyle;curved=1;orthogonalLoop=1;jettySize=auto;html=1;strokeColor=#000000;fontSize=12;" edge="1" parent="1" source="DoB-NNo9R8UuOntgGLnS-33" target="DoB-NNo9R8UuOntgGLnS-107">
          <mxGeometry relative="1" as="geometry" />
        </mxCell>
        <mxCell id="DoB-NNo9R8UuOntgGLnS-115" style="edgeStyle=orthogonalEdgeStyle;curved=1;orthogonalLoop=1;jettySize=auto;html=1;entryX=0;entryY=0.75;entryDx=0;entryDy=0;strokeColor=#000000;fontSize=12;" edge="1" parent="1" source="DoB-NNo9R8UuOntgGLnS-33" target="DoB-NNo9R8UuOntgGLnS-108">
          <mxGeometry relative="1" as="geometry" />
        </mxCell>
        <mxCell id="DoB-NNo9R8UuOntgGLnS-33" value="&lt;font style=&quot;font-size: 16px&quot;&gt;Node JS Basic&lt;/font&gt;" style="rounded=0;whiteSpace=wrap;html=1;fillColor=#fff2cc;strokeColor=#d6b656;gradientColor=#ffd966;" vertex="1" parent="1">
          <mxGeometry x="610" y="510" width="120" height="60" as="geometry" />
        </mxCell>
        <mxCell id="DoB-NNo9R8UuOntgGLnS-43" style="edgeStyle=orthogonalEdgeStyle;rounded=0;orthogonalLoop=1;jettySize=auto;html=1;exitX=0.5;exitY=1;exitDx=0;exitDy=0;" edge="1" parent="1">
          <mxGeometry relative="1" as="geometry">
            <mxPoint x="-60" y="530" as="sourcePoint" />
            <mxPoint x="-60" y="530" as="targetPoint" />
          </mxGeometry>
        </mxCell>
        <mxCell id="DoB-NNo9R8UuOntgGLnS-161" style="edgeStyle=orthogonalEdgeStyle;curved=1;orthogonalLoop=1;jettySize=auto;html=1;strokeColor=#000000;fontSize=12;" edge="1" parent="1" source="DoB-NNo9R8UuOntgGLnS-45" target="DoB-NNo9R8UuOntgGLnS-156">
          <mxGeometry relative="1" as="geometry" />
        </mxCell>
        <mxCell id="DoB-NNo9R8UuOntgGLnS-162" style="edgeStyle=orthogonalEdgeStyle;curved=1;orthogonalLoop=1;jettySize=auto;html=1;entryX=1;entryY=0.5;entryDx=0;entryDy=0;strokeColor=#000000;fontSize=12;" edge="1" parent="1" source="DoB-NNo9R8UuOntgGLnS-45" target="DoB-NNo9R8UuOntgGLnS-158">
          <mxGeometry relative="1" as="geometry" />
        </mxCell>
        <mxCell id="DoB-NNo9R8UuOntgGLnS-163" style="edgeStyle=orthogonalEdgeStyle;curved=1;orthogonalLoop=1;jettySize=auto;html=1;entryX=1;entryY=0.5;entryDx=0;entryDy=0;strokeColor=#000000;fontSize=12;" edge="1" parent="1" source="DoB-NNo9R8UuOntgGLnS-45" target="DoB-NNo9R8UuOntgGLnS-157">
          <mxGeometry relative="1" as="geometry" />
        </mxCell>
        <mxCell id="DoB-NNo9R8UuOntgGLnS-164" style="edgeStyle=orthogonalEdgeStyle;curved=1;orthogonalLoop=1;jettySize=auto;html=1;entryX=1;entryY=0.75;entryDx=0;entryDy=0;strokeColor=#000000;fontSize=12;" edge="1" parent="1" source="DoB-NNo9R8UuOntgGLnS-45" target="DoB-NNo9R8UuOntgGLnS-159">
          <mxGeometry relative="1" as="geometry" />
        </mxCell>
        <mxCell id="DoB-NNo9R8UuOntgGLnS-165" style="edgeStyle=orthogonalEdgeStyle;curved=1;orthogonalLoop=1;jettySize=auto;html=1;entryX=1;entryY=0.5;entryDx=0;entryDy=0;strokeColor=#000000;fontSize=12;" edge="1" parent="1" source="DoB-NNo9R8UuOntgGLnS-45" target="DoB-NNo9R8UuOntgGLnS-160">
          <mxGeometry relative="1" as="geometry" />
        </mxCell>
        <mxCell id="DoB-NNo9R8UuOntgGLnS-45" value="Command Line" style="whiteSpace=wrap;html=1;rounded=0;strokeColor=#d6b656;fillColor=#fff2cc;fontSize=16;gradientColor=#ffd966;" vertex="1" parent="1">
          <mxGeometry x="620" y="685" width="150" height="60" as="geometry" />
        </mxCell>
        <mxCell id="DoB-NNo9R8UuOntgGLnS-103" value="Event Emitters&lt;br&gt;" style="rounded=1;whiteSpace=wrap;html=1;fillColor=#fad9d5;fontSize=12;align=center;strokeColor=#ae4132;" vertex="1" parent="1">
          <mxGeometry x="1000" y="350" width="120" height="30" as="geometry" />
        </mxCell>
        <mxCell id="DoB-NNo9R8UuOntgGLnS-104" value="REST&lt;br&gt;" style="rounded=1;whiteSpace=wrap;html=1;fillColor=#fad9d5;fontSize=12;align=center;strokeColor=#ae4132;" vertex="1" parent="1">
          <mxGeometry x="1000" y="170" width="120" height="30" as="geometry" />
        </mxCell>
        <mxCell id="DoB-NNo9R8UuOntgGLnS-105" value="Call Back" style="rounded=1;whiteSpace=wrap;html=1;fillColor=#fad9d5;fontSize=12;align=center;strokeColor=#ae4132;" vertex="1" parent="1">
          <mxGeometry x="1000" y="400" width="120" height="30" as="geometry" />
        </mxCell>
        <mxCell id="DoB-NNo9R8UuOntgGLnS-106" value="Module System" style="rounded=1;whiteSpace=wrap;html=1;fillColor=#fad9d5;fontSize=12;align=center;strokeColor=#ae4132;" vertex="1" parent="1">
          <mxGeometry x="1000" y="440" width="120" height="30" as="geometry" />
        </mxCell>
        <mxCell id="DoB-NNo9R8UuOntgGLnS-107" value="Process Object" style="rounded=1;whiteSpace=wrap;html=1;fillColor=#fad9d5;fontSize=12;align=center;strokeColor=#ae4132;" vertex="1" parent="1">
          <mxGeometry x="1000" y="250" width="120" height="30" as="geometry" />
        </mxCell>
        <mxCell id="DoB-NNo9R8UuOntgGLnS-108" value="Buffers, Stream&lt;br&gt;" style="rounded=1;whiteSpace=wrap;html=1;fillColor=#fad9d5;fontSize=12;align=center;strokeColor=#ae4132;" vertex="1" parent="1">
          <mxGeometry x="1000" y="290" width="120" height="30" as="geometry" />
        </mxCell>
        <mxCell id="DoB-NNo9R8UuOntgGLnS-116" value="Arrow Funtions" style="rounded=1;whiteSpace=wrap;html=1;fillColor=#fad9d5;fontSize=12;align=center;strokeColor=#ae4132;" vertex="1" parent="1">
          <mxGeometry x="720" y="-470" width="120" height="30" as="geometry" />
        </mxCell>
        <mxCell id="DoB-NNo9R8UuOntgGLnS-117" value="Enhanced Object Literal" style="rounded=1;whiteSpace=wrap;html=1;fillColor=#fad9d5;fontSize=12;align=center;strokeColor=#ae4132;" vertex="1" parent="1">
          <mxGeometry x="720" y="-390" width="120" height="30" as="geometry" />
        </mxCell>
        <mxCell id="DoB-NNo9R8UuOntgGLnS-118" value="Multi line strings&lt;br&gt;" style="rounded=1;whiteSpace=wrap;html=1;fillColor=#fad9d5;fontSize=12;align=center;strokeColor=#ae4132;" vertex="1" parent="1">
          <mxGeometry x="720" y="-430" width="120" height="30" as="geometry" />
        </mxCell>
        <mxCell id="DoB-NNo9R8UuOntgGLnS-119" value="Array" style="rounded=1;whiteSpace=wrap;html=1;fillColor=#fad9d5;fontSize=12;align=center;strokeColor=#ae4132;" vertex="1" parent="1">
          <mxGeometry x="720" y="-350" width="120" height="30" as="geometry" />
        </mxCell>
        <mxCell id="DoB-NNo9R8UuOntgGLnS-134" value="Sematic versionling&lt;br&gt;" style="rounded=1;whiteSpace=wrap;html=1;fillColor=#fad9d5;fontSize=12;align=center;strokeColor=#ae4132;" vertex="1" parent="1">
          <mxGeometry x="-50" y="90" width="120" height="30" as="geometry" />
        </mxCell>
        <mxCell id="DoB-NNo9R8UuOntgGLnS-135" value="Repository" style="rounded=1;whiteSpace=wrap;html=1;fillColor=#fad9d5;fontSize=12;align=center;strokeColor=#ae4132;" vertex="1" parent="1">
          <mxGeometry x="-50" y="180" width="120" height="30" as="geometry" />
        </mxCell>
        <mxCell id="DoB-NNo9R8UuOntgGLnS-136" value="Script" style="rounded=1;whiteSpace=wrap;html=1;fillColor=#fad9d5;fontSize=12;align=center;strokeColor=#ae4132;" vertex="1" parent="1">
          <mxGeometry x="-50" y="140" width="120" height="30" as="geometry" />
        </mxCell>
        <mxCell id="DoB-NNo9R8UuOntgGLnS-137" value="Properties" style="rounded=1;whiteSpace=wrap;html=1;fillColor=#fad9d5;fontSize=12;align=center;strokeColor=#ae4132;" vertex="1" parent="1">
          <mxGeometry x="-50" y="220" width="120" height="30" as="geometry" />
        </mxCell>
        <mxCell id="DoB-NNo9R8UuOntgGLnS-143" value="Objects&lt;br&gt;" style="rounded=1;whiteSpace=wrap;html=1;fillColor=#fad9d5;fontSize=12;align=center;strokeColor=#ae4132;" vertex="1" parent="1">
          <mxGeometry x="-40" y="-240" width="120" height="30" as="geometry" />
        </mxCell>
        <mxCell id="DoB-NNo9R8UuOntgGLnS-144" value="Iterators&lt;br&gt;" style="rounded=1;whiteSpace=wrap;html=1;fillColor=#fad9d5;fontSize=12;align=center;strokeColor=#ae4132;" vertex="1" parent="1">
          <mxGeometry x="-40" y="-280" width="120" height="30" as="geometry" />
        </mxCell>
        <mxCell id="DoB-NNo9R8UuOntgGLnS-145" value="Classes" style="rounded=1;whiteSpace=wrap;html=1;fillColor=#fad9d5;fontSize=12;align=center;strokeColor=#ae4132;" vertex="1" parent="1">
          <mxGeometry x="-40" y="-200" width="120" height="30" as="geometry" />
        </mxCell>
        <mxCell id="DoB-NNo9R8UuOntgGLnS-151" value="Create Table" style="rounded=1;whiteSpace=wrap;html=1;fillColor=#fad9d5;fontSize=12;align=center;strokeColor=#ae4132;" vertex="1" parent="1">
          <mxGeometry x="-430" y="460" width="120" height="30" as="geometry" />
        </mxCell>
        <mxCell id="DoB-NNo9R8UuOntgGLnS-156" value="Pull&amp;nbsp;&lt;br&gt;" style="rounded=1;whiteSpace=wrap;html=1;fillColor=#fad9d5;fontSize=12;align=center;strokeColor=#ae4132;" vertex="1" parent="1">
          <mxGeometry x="360" y="700" width="120" height="30" as="geometry" />
        </mxCell>
        <mxCell id="DoB-NNo9R8UuOntgGLnS-157" value="Commit" style="rounded=1;whiteSpace=wrap;html=1;fillColor=#fad9d5;fontSize=12;align=center;strokeColor=#ae4132;" vertex="1" parent="1">
          <mxGeometry x="360" y="790" width="120" height="30" as="geometry" />
        </mxCell>
        <mxCell id="DoB-NNo9R8UuOntgGLnS-158" value="Push" style="rounded=1;whiteSpace=wrap;html=1;fillColor=#fad9d5;fontSize=12;align=center;strokeColor=#ae4132;" vertex="1" parent="1">
          <mxGeometry x="360" y="750" width="120" height="30" as="geometry" />
        </mxCell>
        <mxCell id="DoB-NNo9R8UuOntgGLnS-159" value="Reset Commit" style="rounded=1;whiteSpace=wrap;html=1;fillColor=#fad9d5;fontSize=12;align=center;strokeColor=#ae4132;" vertex="1" parent="1">
          <mxGeometry x="360" y="830" width="120" height="30" as="geometry" />
        </mxCell>
        <mxCell id="DoB-NNo9R8UuOntgGLnS-160" value="Stash&lt;br&gt;" style="rounded=1;whiteSpace=wrap;html=1;fillColor=#fad9d5;fontSize=12;align=center;strokeColor=#ae4132;" vertex="1" parent="1">
          <mxGeometry x="360" y="880" width="120" height="30" as="geometry" />
        </mxCell>
        <mxCell id="DoB-NNo9R8UuOntgGLnS-169" style="edgeStyle=orthogonalEdgeStyle;curved=1;orthogonalLoop=1;jettySize=auto;html=1;strokeColor=#000000;fontSize=12;" edge="1" parent="1" source="DoB-NNo9R8UuOntgGLnS-168" target="DoB-NNo9R8UuOntgGLnS-1">
          <mxGeometry relative="1" as="geometry" />
        </mxCell>
        <mxCell id="DoB-NNo9R8UuOntgGLnS-170" style="edgeStyle=orthogonalEdgeStyle;curved=1;orthogonalLoop=1;jettySize=auto;html=1;strokeColor=#000000;fontSize=12;" edge="1" parent="1" source="DoB-NNo9R8UuOntgGLnS-168" target="DoB-NNo9R8UuOntgGLnS-11">
          <mxGeometry relative="1" as="geometry" />
        </mxCell>
        <mxCell id="DoB-NNo9R8UuOntgGLnS-168" value="JAVASCRIPT&lt;br&gt;" style="rounded=0;whiteSpace=wrap;html=1;fillColor=#fff2cc;strokeColor=#d6b656;fontSize=20;fontStyle=1" vertex="1" parent="1">
          <mxGeometry x="320" y="-80" width="200" height="80" as="geometry" />
        </mxCell>
        <mxCell id="DoB-NNo9R8UuOntgGLnS-185" value="Async- Await&amp;nbsp;&lt;br&gt;" style="rounded=1;whiteSpace=wrap;html=1;fillColor=#fad9d5;fontSize=12;align=center;strokeColor=#ae4132;" vertex="1" parent="1">
          <mxGeometry x="-40" y="-40" width="120" height="30" as="geometry" />
        </mxCell>
        <mxCell id="DoB-NNo9R8UuOntgGLnS-142" value="Loops" style="rounded=1;whiteSpace=wrap;html=1;fillColor=#fad9d5;fontSize=12;align=center;strokeColor=#ae4132;" vertex="1" parent="1">
          <mxGeometry x="-40" y="-330" width="120" height="30" as="geometry" />
        </mxCell>
        <mxCell id="DoB-NNo9R8UuOntgGLnS-175" value="Functions&lt;br&gt;" style="rounded=1;whiteSpace=wrap;html=1;fillColor=#fad9d5;fontSize=12;align=center;strokeColor=#ae4132;" vertex="1" parent="1">
          <mxGeometry x="-40" y="-455" width="120" height="30" as="geometry" />
        </mxCell>
        <mxCell id="DoB-NNo9R8UuOntgGLnS-176" value="Conditional&lt;br&gt;" style="rounded=1;whiteSpace=wrap;html=1;fillColor=#fad9d5;fontSize=12;align=center;strokeColor=#ae4132;" vertex="1" parent="1">
          <mxGeometry x="-40" y="-505" width="120" height="30" as="geometry" />
        </mxCell>
        <mxCell id="DoB-NNo9R8UuOntgGLnS-177" value="Scope&lt;br&gt;" style="rounded=1;whiteSpace=wrap;html=1;fillColor=#fad9d5;fontSize=12;align=center;strokeColor=#ae4132;" vertex="1" parent="1">
          <mxGeometry x="-40" y="-415" width="120" height="30" as="geometry" />
        </mxCell>
        <mxCell id="DoB-NNo9R8UuOntgGLnS-178" value="Arrays&lt;br&gt;" style="rounded=1;whiteSpace=wrap;html=1;fillColor=#fad9d5;fontSize=12;align=center;strokeColor=#ae4132;" vertex="1" parent="1">
          <mxGeometry x="-40" y="-375" width="120" height="30" as="geometry" />
        </mxCell>
        <mxCell id="DoB-NNo9R8UuOntgGLnS-180" value="Browser Compatibility and Transpilation&lt;br&gt;" style="rounded=1;whiteSpace=wrap;html=1;fillColor=#fad9d5;fontSize=12;align=center;strokeColor=#ae4132;" vertex="1" parent="1">
          <mxGeometry x="-40" y="-160" width="120" height="30" as="geometry" />
        </mxCell>
        <mxCell id="DoB-NNo9R8UuOntgGLnS-181" value="Modules" style="rounded=1;whiteSpace=wrap;html=1;fillColor=#fad9d5;fontSize=12;align=center;strokeColor=#ae4132;" vertex="1" parent="1">
          <mxGeometry x="-40" y="-120" width="120" height="30" as="geometry" />
        </mxCell>
        <mxCell id="DoB-NNo9R8UuOntgGLnS-182" value="Promises" style="rounded=1;whiteSpace=wrap;html=1;fillColor=#fad9d5;fontSize=12;align=center;strokeColor=#ae4132;" vertex="1" parent="1">
          <mxGeometry x="-40" y="-80" width="120" height="30" as="geometry" />
        </mxCell>
        <mxCell id="DoB-NNo9R8UuOntgGLnS-183" style="edgeStyle=orthogonalEdgeStyle;curved=1;orthogonalLoop=1;jettySize=auto;html=1;exitX=0.5;exitY=1;exitDx=0;exitDy=0;strokeColor=#000000;fontSize=12;" edge="1" parent="1" source="DoB-NNo9R8UuOntgGLnS-180" target="DoB-NNo9R8UuOntgGLnS-180">
          <mxGeometry relative="1" as="geometry" />
        </mxCell>
        <mxCell id="DoB-NNo9R8UuOntgGLnS-196" value="Request" style="rounded=1;whiteSpace=wrap;html=1;fillColor=#fad9d5;fontSize=12;align=center;strokeColor=#ae4132;" vertex="1" parent="1">
          <mxGeometry x="-40" width="120" height="30" as="geometry" />
        </mxCell>
        <mxCell id="DoB-NNo9R8UuOntgGLnS-202" value="Insert" style="rounded=1;whiteSpace=wrap;html=1;fillColor=#fad9d5;fontSize=12;align=center;strokeColor=#ae4132;" vertex="1" parent="1">
          <mxGeometry x="-430" y="510" width="120" height="30" as="geometry" />
        </mxCell>
        <mxCell id="DoB-NNo9R8UuOntgGLnS-203" value="Update" style="rounded=1;whiteSpace=wrap;html=1;fillColor=#fad9d5;fontSize=12;align=center;strokeColor=#ae4132;" vertex="1" parent="1">
          <mxGeometry x="-430" y="560" width="120" height="30" as="geometry" />
        </mxCell>
        <mxCell id="DoB-NNo9R8UuOntgGLnS-204" value="Alter Table" style="rounded=1;whiteSpace=wrap;html=1;fillColor=#fad9d5;fontSize=12;align=center;strokeColor=#ae4132;" vertex="1" parent="1">
          <mxGeometry x="-430" y="600" width="120" height="30" as="geometry" />
        </mxCell>
        <mxCell id="DoB-NNo9R8UuOntgGLnS-205" value="Delete" style="rounded=1;whiteSpace=wrap;html=1;fillColor=#fad9d5;fontSize=12;align=center;strokeColor=#ae4132;" vertex="1" parent="1">
          <mxGeometry x="-430" y="640" width="120" height="30" as="geometry" />
        </mxCell>
        <mxCell id="DoB-NNo9R8UuOntgGLnS-227" style="edgeStyle=orthogonalEdgeStyle;curved=1;orthogonalLoop=1;jettySize=auto;html=1;entryX=1;entryY=0.5;entryDx=0;entryDy=0;strokeColor=#000000;fontSize=12;" edge="1" parent="1" source="DoB-NNo9R8UuOntgGLnS-211" target="DoB-NNo9R8UuOntgGLnS-151">
          <mxGeometry relative="1" as="geometry" />
        </mxCell>
        <mxCell id="DoB-NNo9R8UuOntgGLnS-228" style="edgeStyle=orthogonalEdgeStyle;curved=1;orthogonalLoop=1;jettySize=auto;html=1;entryX=1;entryY=0.75;entryDx=0;entryDy=0;strokeColor=#000000;fontSize=12;" edge="1" parent="1" source="DoB-NNo9R8UuOntgGLnS-211" target="DoB-NNo9R8UuOntgGLnS-202">
          <mxGeometry relative="1" as="geometry" />
        </mxCell>
        <mxCell id="DoB-NNo9R8UuOntgGLnS-229" style="edgeStyle=orthogonalEdgeStyle;curved=1;orthogonalLoop=1;jettySize=auto;html=1;entryX=1;entryY=0.75;entryDx=0;entryDy=0;strokeColor=#000000;fontSize=12;" edge="1" parent="1" source="DoB-NNo9R8UuOntgGLnS-211" target="DoB-NNo9R8UuOntgGLnS-203">
          <mxGeometry relative="1" as="geometry" />
        </mxCell>
        <mxCell id="DoB-NNo9R8UuOntgGLnS-230" style="edgeStyle=orthogonalEdgeStyle;curved=1;orthogonalLoop=1;jettySize=auto;html=1;entryX=1;entryY=0.5;entryDx=0;entryDy=0;strokeColor=#000000;fontSize=12;" edge="1" parent="1" source="DoB-NNo9R8UuOntgGLnS-211" target="DoB-NNo9R8UuOntgGLnS-204">
          <mxGeometry relative="1" as="geometry" />
        </mxCell>
        <mxCell id="DoB-NNo9R8UuOntgGLnS-232" style="edgeStyle=orthogonalEdgeStyle;curved=1;orthogonalLoop=1;jettySize=auto;html=1;entryX=1;entryY=0.75;entryDx=0;entryDy=0;strokeColor=#000000;fontSize=12;" edge="1" parent="1" source="DoB-NNo9R8UuOntgGLnS-211" target="DoB-NNo9R8UuOntgGLnS-205">
          <mxGeometry relative="1" as="geometry" />
        </mxCell>
        <mxCell id="DoB-NNo9R8UuOntgGLnS-211" value="&lt;b&gt;&lt;font style=&quot;font-size: 14px&quot;&gt;Manipulation&lt;/font&gt;&lt;/b&gt;" style="whiteSpace=wrap;html=1;rounded=0;strokeColor=#82b366;fillColor=#d5e8d4;gradientColor=#97d077;" vertex="1" parent="1">
          <mxGeometry x="-270" y="580" width="110" height="50" as="geometry" />
        </mxCell>
        <mxCell id="DoB-NNo9R8UuOntgGLnS-221" value="&lt;b&gt;&lt;font style=&quot;font-size: 14px&quot;&gt;Querires&lt;/font&gt;&lt;/b&gt;" style="whiteSpace=wrap;html=1;rounded=0;strokeColor=#82b366;fillColor=#d5e8d4;gradientColor=#97d077;" vertex="1" parent="1">
          <mxGeometry x="-140" y="580" width="110" height="50" as="geometry" />
        </mxCell>
        <mxCell id="DoB-NNo9R8UuOntgGLnS-222" value="&lt;b&gt;&lt;font style=&quot;font-size: 14px&quot;&gt;Aggegate Funtions&lt;/font&gt;&lt;/b&gt;" style="whiteSpace=wrap;html=1;rounded=0;strokeColor=#82b366;fillColor=#d5e8d4;gradientColor=#97d077;" vertex="1" parent="1">
          <mxGeometry x="-10" y="580" width="110" height="50" as="geometry" />
        </mxCell>
        <mxCell id="DoB-NNo9R8UuOntgGLnS-223" value="&lt;span style=&quot;font-size: 14px&quot;&gt;&lt;b&gt;Multiple Tables&lt;/b&gt;&lt;/span&gt;" style="whiteSpace=wrap;html=1;rounded=0;strokeColor=#82b366;fillColor=#d5e8d4;gradientColor=#97d077;" vertex="1" parent="1">
          <mxGeometry x="120" y="580" width="110" height="50" as="geometry" />
        </mxCell>
        <mxCell id="DoB-NNo9R8UuOntgGLnS-296" style="edgeStyle=orthogonalEdgeStyle;curved=1;orthogonalLoop=1;jettySize=auto;html=1;exitX=1;exitY=0.5;exitDx=0;exitDy=0;strokeColor=#000000;fontSize=12;" edge="1" parent="1" source="DoB-NNo9R8UuOntgGLnS-257" target="DoB-NNo9R8UuOntgGLnS-295">
          <mxGeometry relative="1" as="geometry" />
        </mxCell>
        <mxCell id="DoB-NNo9R8UuOntgGLnS-297" style="edgeStyle=orthogonalEdgeStyle;curved=1;orthogonalLoop=1;jettySize=auto;html=1;entryX=0;entryY=0.5;entryDx=0;entryDy=0;strokeColor=#000000;fontSize=12;" edge="1" parent="1" source="DoB-NNo9R8UuOntgGLnS-257" target="DoB-NNo9R8UuOntgGLnS-261">
          <mxGeometry relative="1" as="geometry" />
        </mxCell>
        <mxCell id="DoB-NNo9R8UuOntgGLnS-257" value="&lt;b&gt;&lt;font style=&quot;font-size: 14px&quot;&gt;Request &amp;amp; response&lt;br&gt;&lt;/font&gt;&lt;/b&gt;" style="whiteSpace=wrap;html=1;rounded=0;strokeColor=#82b366;fillColor=#d5e8d4;gradientColor=#97d077;" vertex="1" parent="1">
          <mxGeometry x="1000" y="-300" width="110" height="50" as="geometry" />
        </mxCell>
        <mxCell id="DoB-NNo9R8UuOntgGLnS-269" style="edgeStyle=orthogonalEdgeStyle;curved=1;orthogonalLoop=1;jettySize=auto;html=1;entryX=0;entryY=0.5;entryDx=0;entryDy=0;strokeColor=#000000;fontSize=12;" edge="1" parent="1" source="DoB-NNo9R8UuOntgGLnS-259" target="DoB-NNo9R8UuOntgGLnS-267">
          <mxGeometry relative="1" as="geometry" />
        </mxCell>
        <mxCell id="DoB-NNo9R8UuOntgGLnS-270" style="edgeStyle=orthogonalEdgeStyle;curved=1;orthogonalLoop=1;jettySize=auto;html=1;entryX=0;entryY=0.75;entryDx=0;entryDy=0;strokeColor=#000000;fontSize=12;" edge="1" parent="1" source="DoB-NNo9R8UuOntgGLnS-259" target="DoB-NNo9R8UuOntgGLnS-266">
          <mxGeometry relative="1" as="geometry" />
        </mxCell>
        <mxCell id="DoB-NNo9R8UuOntgGLnS-259" value="&lt;b&gt;&lt;font style=&quot;font-size: 14px&quot;&gt;Http Server &amp;amp; express app&lt;br&gt;&lt;/font&gt;&lt;/b&gt;" style="whiteSpace=wrap;html=1;rounded=0;strokeColor=#82b366;fillColor=#d5e8d4;gradientColor=#97d077;" vertex="1" parent="1">
          <mxGeometry x="1000" y="-415" width="110" height="48" as="geometry" />
        </mxCell>
        <mxCell id="DoB-NNo9R8UuOntgGLnS-260" value="Session" style="rounded=1;whiteSpace=wrap;html=1;fillColor=#fad9d5;fontSize=12;align=center;strokeColor=#ae4132;" vertex="1" parent="1">
          <mxGeometry x="1241" y="-385" width="120" height="30" as="geometry" />
        </mxCell>
        <mxCell id="DoB-NNo9R8UuOntgGLnS-261" value="Cookie" style="rounded=1;whiteSpace=wrap;html=1;fillColor=#fad9d5;fontSize=12;align=center;strokeColor=#ae4132;" vertex="1" parent="1">
          <mxGeometry x="1241" y="-355" width="120" height="30" as="geometry" />
        </mxCell>
        <mxCell id="DoB-NNo9R8UuOntgGLnS-262" value="Req, res life cycle" style="rounded=1;whiteSpace=wrap;html=1;fillColor=#fad9d5;fontSize=12;align=center;strokeColor=#ae4132;" vertex="1" parent="1">
          <mxGeometry x="1241" y="-420" width="120" height="30" as="geometry" />
        </mxCell>
        <mxCell id="DoB-NNo9R8UuOntgGLnS-264" value="&lt;b&gt;&lt;font style=&quot;font-size: 14px&quot;&gt;Temple engine (EJS)&lt;/font&gt;&lt;/b&gt;" style="whiteSpace=wrap;html=1;rounded=0;strokeColor=#82b366;fillColor=#d5e8d4;gradientColor=#97d077;" vertex="1" parent="1">
          <mxGeometry x="1005" y="60" width="110" height="50" as="geometry" />
        </mxCell>
        <mxCell id="DoB-NNo9R8UuOntgGLnS-266" value="Env" style="rounded=1;whiteSpace=wrap;html=1;fillColor=#fad9d5;fontSize=12;align=center;strokeColor=#ae4132;" vertex="1" parent="1">
          <mxGeometry x="1241" y="-500" width="120" height="28" as="geometry" />
        </mxCell>
        <mxCell id="DoB-NNo9R8UuOntgGLnS-267" value="Express app" style="rounded=1;whiteSpace=wrap;html=1;fillColor=#fad9d5;fontSize=12;align=center;strokeColor=#ae4132;" vertex="1" parent="1">
          <mxGeometry x="1241" y="-545" width="120" height="28" as="geometry" />
        </mxCell>
        <mxCell id="DoB-NNo9R8UuOntgGLnS-287" value="" style="group" vertex="1" connectable="0" parent="1">
          <mxGeometry x="1230" y="-80" width="350" height="450" as="geometry" />
        </mxCell>
        <mxCell id="DoB-NNo9R8UuOntgGLnS-89" value="DRYing Code With Functions" style="rounded=1;whiteSpace=wrap;html=1;fillColor=#fad9d5;fontSize=12;align=center;strokeColor=#ae4132;" vertex="1" parent="DoB-NNo9R8UuOntgGLnS-287">
          <mxGeometry x="230" width="120" height="30" as="geometry" />
        </mxCell>
        <mxCell id="DoB-NNo9R8UuOntgGLnS-90" value="Req and Res Params" style="rounded=1;whiteSpace=wrap;html=1;fillColor=#fad9d5;fontSize=12;align=center;strokeColor=#ae4132;" vertex="1" parent="DoB-NNo9R8UuOntgGLnS-287">
          <mxGeometry x="230" y="90" width="120" height="30" as="geometry" />
        </mxCell>
        <mxCell id="DoB-NNo9R8UuOntgGLnS-91" value="next()" style="rounded=1;whiteSpace=wrap;html=1;fillColor=#fad9d5;fontSize=12;align=center;strokeColor=#ae4132;" vertex="1" parent="DoB-NNo9R8UuOntgGLnS-287">
          <mxGeometry x="230" y="50" width="120" height="30" as="geometry" />
        </mxCell>
        <mxCell id="DoB-NNo9R8UuOntgGLnS-92" value="Route-Level app.use() Single Path" style="rounded=1;whiteSpace=wrap;html=1;fillColor=#fad9d5;fontSize=12;align=center;strokeColor=#ae4132;" vertex="1" parent="DoB-NNo9R8UuOntgGLnS-287">
          <mxGeometry x="230" y="130" width="120" height="30" as="geometry" />
        </mxCell>
        <mxCell id="DoB-NNo9R8UuOntgGLnS-93" value="Control Flow with next()" style="rounded=1;whiteSpace=wrap;html=1;fillColor=#fad9d5;fontSize=12;align=center;strokeColor=#ae4132;" vertex="1" parent="DoB-NNo9R8UuOntgGLnS-287">
          <mxGeometry x="230" y="170" width="120" height="30" as="geometry" />
        </mxCell>
        <mxCell id="DoB-NNo9R8UuOntgGLnS-94" value="Route-Level app.use() Mutil Path" style="rounded=1;whiteSpace=wrap;html=1;fillColor=#fad9d5;fontSize=12;align=center;strokeColor=#ae4132;" vertex="1" parent="DoB-NNo9R8UuOntgGLnS-287">
          <mxGeometry x="230" y="210" width="120" height="30" as="geometry" />
        </mxCell>
        <mxCell id="DoB-NNo9R8UuOntgGLnS-237" value="&lt;b&gt;&lt;font style=&quot;font-size: 14px&quot;&gt;Middleware&lt;/font&gt;&lt;/b&gt;" style="whiteSpace=wrap;html=1;rounded=0;strokeColor=#82b366;fillColor=#d5e8d4;gradientColor=#97d077;" vertex="1" parent="DoB-NNo9R8UuOntgGLnS-287">
          <mxGeometry y="100" width="110" height="50" as="geometry" />
        </mxCell>
        <mxCell id="DoB-NNo9R8UuOntgGLnS-239" value="Middaleware Stacks" style="rounded=1;whiteSpace=wrap;html=1;fillColor=#fad9d5;fontSize=12;align=center;strokeColor=#ae4132;" vertex="1" parent="DoB-NNo9R8UuOntgGLnS-287">
          <mxGeometry x="230" y="260" width="120" height="30" as="geometry" />
        </mxCell>
        <mxCell id="DoB-NNo9R8UuOntgGLnS-240" value="Body Parsing" style="rounded=1;whiteSpace=wrap;html=1;fillColor=#fad9d5;fontSize=12;align=center;strokeColor=#ae4132;" vertex="1" parent="DoB-NNo9R8UuOntgGLnS-287">
          <mxGeometry x="230" y="300" width="120" height="30" as="geometry" />
        </mxCell>
        <mxCell id="DoB-NNo9R8UuOntgGLnS-242" value="Documation" style="rounded=1;whiteSpace=wrap;html=1;fillColor=#fad9d5;fontSize=12;align=center;strokeColor=#ae4132;" vertex="1" parent="DoB-NNo9R8UuOntgGLnS-287">
          <mxGeometry x="230" y="340" width="120" height="30" as="geometry" />
        </mxCell>
        <mxCell id="DoB-NNo9R8UuOntgGLnS-243" value="Middaleware Logging" style="rounded=1;whiteSpace=wrap;html=1;fillColor=#fad9d5;fontSize=12;align=center;strokeColor=#ae4132;" vertex="1" parent="DoB-NNo9R8UuOntgGLnS-287">
          <mxGeometry x="230" y="380" width="120" height="30" as="geometry" />
        </mxCell>
        <mxCell id="DoB-NNo9R8UuOntgGLnS-279" value="Error Handling" style="rounded=1;whiteSpace=wrap;html=1;fillColor=#d80073;fontSize=12;align=center;strokeColor=#A50040;fontColor=#ffffff;" vertex="1" parent="DoB-NNo9R8UuOntgGLnS-287">
          <mxGeometry x="230" y="420" width="120" height="30" as="geometry" />
        </mxCell>
        <mxCell id="DoB-NNo9R8UuOntgGLnS-245" style="edgeStyle=orthogonalEdgeStyle;curved=1;orthogonalLoop=1;jettySize=auto;html=1;entryX=0;entryY=0.75;entryDx=0;entryDy=0;strokeColor=#000000;fontSize=12;" edge="1" parent="DoB-NNo9R8UuOntgGLnS-287" source="DoB-NNo9R8UuOntgGLnS-237" target="DoB-NNo9R8UuOntgGLnS-89">
          <mxGeometry relative="1" as="geometry" />
        </mxCell>
        <mxCell id="DoB-NNo9R8UuOntgGLnS-247" style="edgeStyle=orthogonalEdgeStyle;curved=1;orthogonalLoop=1;jettySize=auto;html=1;entryX=0;entryY=0.25;entryDx=0;entryDy=0;strokeColor=#000000;fontSize=12;" edge="1" parent="DoB-NNo9R8UuOntgGLnS-287" source="DoB-NNo9R8UuOntgGLnS-237" target="DoB-NNo9R8UuOntgGLnS-91">
          <mxGeometry relative="1" as="geometry" />
        </mxCell>
        <mxCell id="DoB-NNo9R8UuOntgGLnS-248" style="edgeStyle=orthogonalEdgeStyle;curved=1;orthogonalLoop=1;jettySize=auto;html=1;entryX=0;entryY=0.5;entryDx=0;entryDy=0;strokeColor=#000000;fontSize=12;" edge="1" parent="DoB-NNo9R8UuOntgGLnS-287" source="DoB-NNo9R8UuOntgGLnS-237" target="DoB-NNo9R8UuOntgGLnS-90">
          <mxGeometry relative="1" as="geometry" />
        </mxCell>
        <mxCell id="DoB-NNo9R8UuOntgGLnS-249" style="edgeStyle=orthogonalEdgeStyle;curved=1;orthogonalLoop=1;jettySize=auto;html=1;strokeColor=#000000;fontSize=12;" edge="1" parent="DoB-NNo9R8UuOntgGLnS-287" source="DoB-NNo9R8UuOntgGLnS-237" target="DoB-NNo9R8UuOntgGLnS-92">
          <mxGeometry relative="1" as="geometry" />
        </mxCell>
        <mxCell id="DoB-NNo9R8UuOntgGLnS-250" style="edgeStyle=orthogonalEdgeStyle;curved=1;orthogonalLoop=1;jettySize=auto;html=1;entryX=0;entryY=0.5;entryDx=0;entryDy=0;strokeColor=#000000;fontSize=12;" edge="1" parent="DoB-NNo9R8UuOntgGLnS-287" source="DoB-NNo9R8UuOntgGLnS-237" target="DoB-NNo9R8UuOntgGLnS-93">
          <mxGeometry relative="1" as="geometry" />
        </mxCell>
        <mxCell id="DoB-NNo9R8UuOntgGLnS-251" style="edgeStyle=orthogonalEdgeStyle;curved=1;orthogonalLoop=1;jettySize=auto;html=1;entryX=0;entryY=0.5;entryDx=0;entryDy=0;strokeColor=#000000;fontSize=12;" edge="1" parent="DoB-NNo9R8UuOntgGLnS-287" source="DoB-NNo9R8UuOntgGLnS-237" target="DoB-NNo9R8UuOntgGLnS-94">
          <mxGeometry relative="1" as="geometry" />
        </mxCell>
        <mxCell id="DoB-NNo9R8UuOntgGLnS-252" style="edgeStyle=orthogonalEdgeStyle;curved=1;orthogonalLoop=1;jettySize=auto;html=1;entryX=0;entryY=0.5;entryDx=0;entryDy=0;strokeColor=#000000;fontSize=12;" edge="1" parent="DoB-NNo9R8UuOntgGLnS-287" source="DoB-NNo9R8UuOntgGLnS-237" target="DoB-NNo9R8UuOntgGLnS-239">
          <mxGeometry relative="1" as="geometry" />
        </mxCell>
        <mxCell id="DoB-NNo9R8UuOntgGLnS-253" style="edgeStyle=orthogonalEdgeStyle;curved=1;orthogonalLoop=1;jettySize=auto;html=1;entryX=0;entryY=0.75;entryDx=0;entryDy=0;strokeColor=#000000;fontSize=12;" edge="1" parent="DoB-NNo9R8UuOntgGLnS-287" source="DoB-NNo9R8UuOntgGLnS-237" target="DoB-NNo9R8UuOntgGLnS-240">
          <mxGeometry relative="1" as="geometry" />
        </mxCell>
        <mxCell id="DoB-NNo9R8UuOntgGLnS-254" style="edgeStyle=orthogonalEdgeStyle;curved=1;orthogonalLoop=1;jettySize=auto;html=1;entryX=0;entryY=0.75;entryDx=0;entryDy=0;strokeColor=#000000;fontSize=12;" edge="1" parent="DoB-NNo9R8UuOntgGLnS-287" source="DoB-NNo9R8UuOntgGLnS-237" target="DoB-NNo9R8UuOntgGLnS-242">
          <mxGeometry relative="1" as="geometry" />
        </mxCell>
        <mxCell id="DoB-NNo9R8UuOntgGLnS-255" style="edgeStyle=orthogonalEdgeStyle;curved=1;orthogonalLoop=1;jettySize=auto;html=1;entryX=0;entryY=0.75;entryDx=0;entryDy=0;strokeColor=#000000;fontSize=12;" edge="1" parent="DoB-NNo9R8UuOntgGLnS-287" source="DoB-NNo9R8UuOntgGLnS-237" target="DoB-NNo9R8UuOntgGLnS-243">
          <mxGeometry relative="1" as="geometry" />
        </mxCell>
        <mxCell id="DoB-NNo9R8UuOntgGLnS-293" value="Http server" style="rounded=1;whiteSpace=wrap;html=1;fillColor=#fad9d5;fontSize=12;align=center;strokeColor=#ae4132;" vertex="1" parent="1">
          <mxGeometry x="1241" y="-598" width="120" height="28" as="geometry" />
        </mxCell>
        <mxCell id="DoB-NNo9R8UuOntgGLnS-294" value="" style="group" vertex="1" connectable="0" parent="1">
          <mxGeometry x="1020" y="-225" width="351" height="145" as="geometry" />
        </mxCell>
        <mxCell id="DoB-NNo9R8UuOntgGLnS-235" value="&lt;b&gt;&lt;font style=&quot;font-size: 14px&quot;&gt;Routes&lt;/font&gt;&lt;/b&gt;" style="whiteSpace=wrap;html=1;rounded=0;strokeColor=#82b366;fillColor=#d5e8d4;gradientColor=#97d077;" vertex="1" parent="DoB-NNo9R8UuOntgGLnS-294">
          <mxGeometry y="50" width="110" height="50" as="geometry" />
        </mxCell>
        <mxCell id="DoB-NNo9R8UuOntgGLnS-271" value="Nested route" style="rounded=1;whiteSpace=wrap;html=1;fillColor=#fad9d5;fontSize=12;align=center;strokeColor=#ae4132;" vertex="1" parent="DoB-NNo9R8UuOntgGLnS-294">
          <mxGeometry x="231" y="40" width="120" height="30" as="geometry" />
        </mxCell>
        <mxCell id="DoB-NNo9R8UuOntgGLnS-272" value="Sttatic route" style="rounded=1;whiteSpace=wrap;html=1;fillColor=#fad9d5;fontSize=12;align=center;strokeColor=#ae4132;" vertex="1" parent="DoB-NNo9R8UuOntgGLnS-294">
          <mxGeometry x="231" width="120" height="30" as="geometry" />
        </mxCell>
        <mxCell id="DoB-NNo9R8UuOntgGLnS-278" value="Authen" style="rounded=1;whiteSpace=wrap;html=1;fillColor=#fad9d5;fontSize=12;align=center;strokeColor=#ae4132;" vertex="1" parent="DoB-NNo9R8UuOntgGLnS-294">
          <mxGeometry x="231" y="80" width="120" height="30" as="geometry" />
        </mxCell>
        <mxCell id="DoB-NNo9R8UuOntgGLnS-281" value="Validate" style="rounded=1;whiteSpace=wrap;html=1;fillColor=#fad9d5;fontSize=12;align=center;strokeColor=#ae4132;" vertex="1" parent="DoB-NNo9R8UuOntgGLnS-294">
          <mxGeometry x="231" y="115" width="120" height="30" as="geometry" />
        </mxCell>
        <mxCell id="DoB-NNo9R8UuOntgGLnS-277" style="edgeStyle=orthogonalEdgeStyle;curved=1;orthogonalLoop=1;jettySize=auto;html=1;entryX=0;entryY=0.25;entryDx=0;entryDy=0;strokeColor=#000000;fontSize=12;" edge="1" parent="DoB-NNo9R8UuOntgGLnS-294" source="DoB-NNo9R8UuOntgGLnS-235" target="DoB-NNo9R8UuOntgGLnS-271">
          <mxGeometry relative="1" as="geometry" />
        </mxCell>
        <mxCell id="DoB-NNo9R8UuOntgGLnS-276" style="edgeStyle=orthogonalEdgeStyle;curved=1;orthogonalLoop=1;jettySize=auto;html=1;entryX=0;entryY=0.5;entryDx=0;entryDy=0;strokeColor=#000000;fontSize=12;" edge="1" parent="DoB-NNo9R8UuOntgGLnS-294" source="DoB-NNo9R8UuOntgGLnS-235" target="DoB-NNo9R8UuOntgGLnS-272">
          <mxGeometry relative="1" as="geometry" />
        </mxCell>
        <mxCell id="DoB-NNo9R8UuOntgGLnS-280" style="edgeStyle=orthogonalEdgeStyle;curved=1;orthogonalLoop=1;jettySize=auto;html=1;entryX=0;entryY=0.5;entryDx=0;entryDy=0;strokeColor=#000000;fontSize=12;" edge="1" parent="DoB-NNo9R8UuOntgGLnS-294" source="DoB-NNo9R8UuOntgGLnS-235" target="DoB-NNo9R8UuOntgGLnS-278">
          <mxGeometry relative="1" as="geometry" />
        </mxCell>
        <mxCell id="DoB-NNo9R8UuOntgGLnS-288" style="edgeStyle=orthogonalEdgeStyle;curved=1;orthogonalLoop=1;jettySize=auto;html=1;entryX=0;entryY=0.75;entryDx=0;entryDy=0;strokeColor=#000000;fontSize=12;" edge="1" parent="DoB-NNo9R8UuOntgGLnS-294" source="DoB-NNo9R8UuOntgGLnS-235" target="DoB-NNo9R8UuOntgGLnS-281">
          <mxGeometry relative="1" as="geometry" />
        </mxCell>
        <mxCell id="DoB-NNo9R8UuOntgGLnS-295" value="Handle Params, query, body, file" style="rounded=1;whiteSpace=wrap;html=1;fillColor=#fad9d5;fontSize=12;align=center;strokeColor=#ae4132;" vertex="1" parent="1">
          <mxGeometry x="1241" y="-310" width="120" height="30" as="geometry" />
        </mxCell>
      </root>
    </mxGraphModel>
  </diagram>
</mxfile>
